<svg xmlns="http://www.w3.org/2000/svg" xmlns:xlink="http://www.w3.org/1999/xlink" contentStyleType="text/css" data-diagram-type="CLASS" height="975px" preserveAspectRatio="none" style="width:873px;height:975px;background:#FFFFFF;" version="1.1" viewBox="0 0 873 975" width="873px" zoomAndPan="magnify"><defs/><g><!--class ResPartner--><g class="entity" data-entity="ResPartner" data-source-line="2" data-uid="ent0002" id="entity_ResPartner"><rect fill="#F1F1F1" height="162.0781" rx="2.5" ry="2.5" style="stroke:#181818;stroke-width:0.5;" width="176.0283" x="204.06" y="7"/><ellipse cx="248.791" cy="23" fill="#ADD1B2" rx="11" ry="11" style="stroke:#181818;stroke-width:1;"/><path d="M251.7597,28.6406 Q251.1816,28.9375 250.541,29.0781 Q249.9003,29.2344 249.1972,29.2344 Q246.6972,29.2344 245.3691,27.5938 Q244.0566,25.9375 244.0566,22.8125 Q244.0566,19.6875 245.3691,18.0313 Q246.6972,16.375 249.1972,16.375 Q249.9003,16.375 250.541,16.5313 Q251.1972,16.6875 251.7597,16.9844 L251.7597,19.7031 Q251.1347,19.125 250.541,18.8594 Q249.9472,18.5781 249.3222,18.5781 Q247.9785,18.5781 247.291,19.6563 Q246.6035,20.7188 246.6035,22.8125 Q246.6035,24.9063 247.291,25.9844 Q247.9785,27.0469 249.3222,27.0469 Q249.9472,27.0469 250.541,26.7813 Q251.1347,26.5 251.7597,25.9219 L251.7597,28.6406 Z " fill="#000000"/><text fill="#000000" font-family="sans-serif" font-size="14" lengthAdjust="spacing" textLength="78.0664" x="269.291" y="27.8467">res.partner</text><line style="stroke:#181818;stroke-width:0.5;" x1="205.06" x2="379.0883" y1="39" y2="39"/><text fill="#000000" font-family="sans-serif" font-size="14" lengthAdjust="spacing" textLength="88.2451" x="210.06" y="55.9951">+id : integer</text><text fill="#000000" font-family="sans-serif" font-size="14" lengthAdjust="spacing" textLength="95.9561" x="210.06" y="72.292">+name : char</text><text fill="#000000" font-family="sans-serif" font-size="14" lengthAdjust="spacing" textLength="94.8623" x="210.06" y="88.5889">+email : char</text><text fill="#000000" font-family="sans-serif" font-size="14" lengthAdjust="spacing" textLength="100.0645" x="210.06" y="104.8857">+phone : char</text><text fill="#000000" font-family="sans-serif" font-size="14" lengthAdjust="spacing" textLength="97.5078" x="210.06" y="121.1826">+street : char</text><text fill="#000000" font-family="sans-serif" font-size="14" lengthAdjust="spacing" textLength="164.0283" x="210.06" y="137.4795">+is_company : boolean</text><line style="stroke:#181818;stroke-width:1;stroke-dasharray:1.0,2.0;" x1="205.06" x2="379.0883" y1="144.7813" y2="144.7813"/><text fill="#000000" font-family="sans-serif" font-size="14" lengthAdjust="spacing" textLength="91.9912" x="210.06" y="161.7764">&#171;Odoo base&#187;</text></g><!--class ResUsers--><g class="entity" data-entity="ResUsers" data-source-line="13" data-uid="ent0003" id="entity_ResUsers"><rect fill="#F1F1F1" height="129.4844" rx="2.5" ry="2.5" style="stroke:#181818;stroke-width:0.5;" width="131.0615" x="172.54" y="262.37"/><ellipse cx="203.3432" cy="278.37" fill="#ADD1B2" rx="11" ry="11" style="stroke:#181818;stroke-width:1;"/><path d="M206.3119,284.0106 Q205.7338,284.3075 205.0932,284.4481 Q204.4525,284.6044 203.7494,284.6044 Q201.2494,284.6044 199.9213,282.9638 Q198.6088,281.3075 198.6088,278.1825 Q198.6088,275.0575 199.9213,273.4013 Q201.2494,271.745 203.7494,271.745 Q204.4525,271.745 205.0932,271.9013 Q205.7494,272.0575 206.3119,272.3544 L206.3119,275.0731 Q205.6869,274.495 205.0932,274.2294 Q204.4994,273.9481 203.8744,273.9481 Q202.5307,273.9481 201.8432,275.0263 Q201.1557,276.0888 201.1557,278.1825 Q201.1557,280.2763 201.8432,281.3544 Q202.5307,282.4169 203.8744,282.4169 Q204.4994,282.4169 205.0932,282.1513 Q205.6869,281.87 206.3119,281.2919 L206.3119,284.0106 Z " fill="#000000"/><text fill="#000000" font-family="sans-serif" font-size="14" lengthAdjust="spacing" textLength="63.9434" x="220.855" y="283.2167">res.users</text><line style="stroke:#181818;stroke-width:0.5;" x1="173.54" x2="302.6015" y1="294.37" y2="294.37"/><text fill="#000000" font-family="sans-serif" font-size="14" lengthAdjust="spacing" textLength="24.5068" x="178.54" y="311.3651">+id</text><text fill="#000000" font-family="sans-serif" font-size="14" lengthAdjust="spacing" textLength="45.835" x="178.54" y="327.662">+login</text><text fill="#000000" font-family="sans-serif" font-size="14" lengthAdjust="spacing" textLength="119.0615" x="178.54" y="343.9589">+password_hash</text><text fill="#000000" font-family="sans-serif" font-size="14" lengthAdjust="spacing" textLength="79.7686" x="178.54" y="360.2557">+groups_id</text><line style="stroke:#181818;stroke-width:1;stroke-dasharray:1.0,2.0;" x1="173.54" x2="302.6015" y1="367.5575" y2="367.5575"/><text fill="#000000" font-family="sans-serif" font-size="14" lengthAdjust="spacing" textLength="91.9912" x="178.54" y="384.5526">&#171;Odoo base&#187;</text></g><!--class ParcClient--><g class="entity" data-entity="ParcClient" data-source-line="22" data-uid="ent0004" id="entity_ParcClient"><rect fill="#F1F1F1" height="162.0781" rx="2.5" ry="2.5" style="stroke:#181818;stroke-width:0.5;" width="221.7813" x="338.18" y="246.08"/><ellipse cx="407.91" cy="262.08" fill="#ADD1B2" rx="11" ry="11" style="stroke:#181818;stroke-width:1;"/><path d="M410.8787,267.7206 Q410.3006,268.0175 409.66,268.1581 Q409.0194,268.3144 408.3162,268.3144 Q405.8162,268.3144 404.4881,266.6738 Q403.1756,265.0175 403.1756,261.8925 Q403.1756,258.7675 404.4881,257.1113 Q405.8162,255.455 408.3162,255.455 Q409.0194,255.455 409.66,255.6113 Q410.3162,255.7675 410.8787,256.0644 L410.8787,258.7831 Q410.2537,258.205 409.66,257.9394 Q409.0662,257.6581 408.4412,257.6581 Q407.0975,257.6581 406.41,258.7363 Q405.7225,259.7988 405.7225,261.8925 Q405.7225,263.9863 406.41,265.0644 Q407.0975,266.1269 408.4412,266.1269 Q409.0662,266.1269 409.66,265.8613 Q410.2537,265.58 410.8787,265.0019 L410.8787,267.7206 Z " fill="#000000"/><text fill="#000000" font-family="sans-serif" font-size="14" lengthAdjust="spacing" textLength="73.8213" x="428.41" y="266.9267">parc.client</text><line style="stroke:#181818;stroke-width:0.5;" x1="339.18" x2="558.9613" y1="278.08" y2="278.08"/><text fill="#000000" font-family="sans-serif" font-size="14" lengthAdjust="spacing" textLength="24.5068" x="344.18" y="295.0751">+id</text><text fill="#000000" font-family="sans-serif" font-size="14" lengthAdjust="spacing" textLength="141.5039" x="344.18" y="311.372">+responsable : char</text><text fill="#000000" font-family="sans-serif" font-size="14" lengthAdjust="spacing" textLength="120.8867" x="344.18" y="327.6689">+siret_nif   : char</text><line style="stroke:#181818;stroke-width:1;" x1="339.18" x2="558.9613" y1="334.9706" y2="334.9706"/><text fill="#000000" font-family="sans-serif" font-size="14" lengthAdjust="spacing" textLength="209.7813" x="344.18" y="351.9657">+partner_id : m2o ResPartner</text><text fill="#000000" font-family="sans-serif" font-size="14" lengthAdjust="spacing" textLength="136.0352" x="344.18" y="368.2626">+email      : related</text><text fill="#000000" font-family="sans-serif" font-size="14" lengthAdjust="spacing" textLength="150.042" x="344.18" y="384.5595">+telephone  : related</text><text fill="#000000" font-family="sans-serif" font-size="14" lengthAdjust="spacing" textLength="143.5615" x="344.18" y="400.8564">+adresse    : related</text></g><!--class ClientSite--><g class="entity" data-entity="ClientSite" data-source-line="33" data-uid="ent0005" id="entity_ClientSite"><rect fill="#F1F1F1" height="113.1875" rx="2.5" ry="2.5" style="stroke:#181818;stroke-width:0.5;" width="202.1416" x="7" y="526.19"/><ellipse cx="52.042" cy="542.19" fill="#ADD1B2" rx="11" ry="11" style="stroke:#181818;stroke-width:1;"/><path d="M55.0107,547.8306 Q54.4326,548.1275 53.792,548.2681 Q53.1514,548.4244 52.4482,548.4244 Q49.9482,548.4244 48.6201,546.7837 Q47.3076,545.1275 47.3076,542.0025 Q47.3076,538.8775 48.6201,537.2212 Q49.9482,535.565 52.4482,535.565 Q53.1514,535.565 53.792,535.7212 Q54.4482,535.8775 55.0107,536.1744 L55.0107,538.8931 Q54.3857,538.315 53.792,538.0494 Q53.1982,537.7681 52.5732,537.7681 Q51.2295,537.7681 50.542,538.8462 Q49.8545,539.9087 49.8545,542.0025 Q49.8545,544.0962 50.542,545.1744 Q51.2295,546.2369 52.5732,546.2369 Q53.1982,546.2369 53.792,545.9712 Q54.3857,545.69 55.0107,545.1119 L55.0107,547.8306 Z " fill="#000000"/><text fill="#000000" font-family="sans-serif" font-size="14" lengthAdjust="spacing" textLength="103.5576" x="72.542" y="547.0367">parc.client.site</text><line style="stroke:#181818;stroke-width:0.5;" x1="8" x2="208.1416" y1="558.19" y2="558.19"/><text fill="#000000" font-family="sans-serif" font-size="14" lengthAdjust="spacing" textLength="24.5068" x="13" y="575.1851">+id</text><text fill="#000000" font-family="sans-serif" font-size="14" lengthAdjust="spacing" textLength="51.4336" x="13" y="591.482">+name</text><text fill="#000000" font-family="sans-serif" font-size="14" lengthAdjust="spacing" textLength="66.7666" x="13" y="607.7789">+adresse</text><line style="stroke:#181818;stroke-width:1;" x1="8" x2="208.1416" y1="615.0806" y2="615.0806"/><text fill="#000000" font-family="sans-serif" font-size="14" lengthAdjust="spacing" textLength="190.1416" x="13" y="632.0757">+client_id : m2o ParcClient</text></g><!--class Equipement--><g class="entity" data-entity="Equipement" data-source-line="41" data-uid="ent0006" id="entity_Equipement"><rect fill="#F1F1F1" height="227.2656" rx="2.5" ry="2.5" style="stroke:#181818;stroke-width:0.5;" width="202.1416" x="481" y="469.16"/><ellipse cx="518.6784" cy="485.16" fill="#ADD1B2" rx="11" ry="11" style="stroke:#181818;stroke-width:1;"/><path d="M521.6472,490.8006 Q521.069,491.0975 520.4284,491.2381 Q519.7878,491.3944 519.0847,491.3944 Q516.5847,491.3944 515.2565,489.7537 Q513.944,488.0975 513.944,484.9725 Q513.944,481.8475 515.2565,480.1912 Q516.5847,478.535 519.0847,478.535 Q519.7878,478.535 520.4284,478.6912 Q521.0847,478.8475 521.6472,479.1444 L521.6472,481.8631 Q521.0222,481.285 520.4284,481.0194 Q519.8347,480.7381 519.2097,480.7381 Q517.8659,480.7381 517.1784,481.8162 Q516.4909,482.8787 516.4909,484.9725 Q516.4909,487.0662 517.1784,488.1444 Q517.8659,489.2069 519.2097,489.2069 Q519.8347,489.2069 520.4284,488.9412 Q521.0222,488.66 521.6472,488.0819 L521.6472,490.8006 Z " fill="#000000"/><text fill="#000000" font-family="sans-serif" font-size="14" lengthAdjust="spacing" textLength="119.7451" x="537.7181" y="490.0067">parc.equipement</text><line style="stroke:#181818;stroke-width:0.5;" x1="482" x2="682.1416" y1="501.16" y2="501.16"/><text fill="#000000" font-family="sans-serif" font-size="14" lengthAdjust="spacing" textLength="24.5068" x="487" y="518.1551">+id</text><text fill="#000000" font-family="sans-serif" font-size="14" lengthAdjust="spacing" textLength="51.4336" x="487" y="534.452">+name</text><text fill="#000000" font-family="sans-serif" font-size="14" lengthAdjust="spacing" textLength="43.0049" x="487" y="550.7489">+type</text><text fill="#000000" font-family="sans-serif" font-size="14" lengthAdjust="spacing" textLength="66.0762" x="487" y="567.0457">+marque</text><text fill="#000000" font-family="sans-serif" font-size="14" lengthAdjust="spacing" textLength="63.9365" x="487" y="583.3426">+modele</text><text fill="#000000" font-family="sans-serif" font-size="14" lengthAdjust="spacing" textLength="107.2148" x="487" y="599.6395">+numero_serie</text><text fill="#000000" font-family="sans-serif" font-size="14" lengthAdjust="spacing" textLength="126.2256" x="487" y="615.9364">+date_acquisition</text><text fill="#000000" font-family="sans-serif" font-size="14" lengthAdjust="spacing" textLength="95.0879" x="487" y="632.2332">+garantie_fin</text><text fill="#000000" font-family="sans-serif" font-size="14" lengthAdjust="spacing" textLength="39.9014" x="487" y="648.5301">+etat</text><line style="stroke:#181818;stroke-width:1;" x1="482" x2="682.1416" y1="655.8319" y2="655.8319"/><text fill="#000000" font-family="sans-serif" font-size="14" lengthAdjust="spacing" textLength="190.1416" x="487" y="672.827">+client_id : m2o ParcClient</text><text fill="#000000" font-family="sans-serif" font-size="14" lengthAdjust="spacing" textLength="182.2803" x="487" y="689.1239">+site_id   : m2o ClientSite</text></g><!--class Contrat--><g class="entity" data-entity="Contrat" data-source-line="56" data-uid="ent0007" id="entity_Contrat"><rect fill="#F1F1F1" height="194.6719" rx="2.5" ry="2.5" style="stroke:#181818;stroke-width:0.5;" width="202.1416" x="244" y="485.45"/><ellipse cx="297.9116" cy="501.45" fill="#ADD1B2" rx="11" ry="11" style="stroke:#181818;stroke-width:1;"/><path d="M300.8804,507.0906 Q300.3022,507.3875 299.6616,507.5281 Q299.021,507.6844 298.3179,507.6844 Q295.8179,507.6844 294.4897,506.0438 Q293.1772,504.3875 293.1772,501.2625 Q293.1772,498.1375 294.4897,496.4813 Q295.8179,494.825 298.3179,494.825 Q299.021,494.825 299.6616,494.9813 Q300.3179,495.1375 300.8804,495.4344 L300.8804,498.1531 Q300.2554,497.575 299.6616,497.3094 Q299.0679,497.0281 298.4429,497.0281 Q297.0991,497.0281 296.4116,498.1063 Q295.7241,499.1688 295.7241,501.2625 Q295.7241,503.3563 296.4116,504.4344 Q297.0991,505.4969 298.4429,505.4969 Q299.0679,505.4969 299.6616,505.2313 Q300.2554,504.95 300.8804,504.3719 L300.8804,507.0906 Z " fill="#000000"/><text fill="#000000" font-family="sans-serif" font-size="14" lengthAdjust="spacing" textLength="85.8184" x="318.4116" y="506.2967">parc.contrat</text><line style="stroke:#181818;stroke-width:0.5;" x1="245" x2="445.1416" y1="517.45" y2="517.45"/><text fill="#000000" font-family="sans-serif" font-size="14" lengthAdjust="spacing" textLength="24.5068" x="250" y="534.4451">+id</text><text fill="#000000" font-family="sans-serif" font-size="14" lengthAdjust="spacing" textLength="79.1943" x="250" y="550.742">+reference</text><text fill="#000000" font-family="sans-serif" font-size="14" lengthAdjust="spacing" textLength="100.4541" x="250" y="567.0389">+type_contrat</text><text fill="#000000" font-family="sans-serif" font-size="14" lengthAdjust="spacing" textLength="91.0479" x="250" y="583.3357">+date_debut</text><text fill="#000000" font-family="sans-serif" font-size="14" lengthAdjust="spacing" textLength="67.9902" x="250" y="599.6326">+date_fin</text><text fill="#000000" font-family="sans-serif" font-size="14" lengthAdjust="spacing" textLength="116.2793" x="250" y="615.9295">+frequence_fact</text><text fill="#000000" font-family="sans-serif" font-size="14" lengthAdjust="spacing" textLength="138.0313" x="250" y="632.2264">+montant_mensuel</text><text fill="#000000" font-family="sans-serif" font-size="14" lengthAdjust="spacing" textLength="52.9443" x="250" y="648.5232">+statut</text><line style="stroke:#181818;stroke-width:1;" x1="245" x2="445.1416" y1="655.825" y2="655.825"/><text fill="#000000" font-family="sans-serif" font-size="14" lengthAdjust="spacing" textLength="190.1416" x="250" y="672.8201">+client_id : m2o ParcClient</text></g><!--class ContratLigne--><g class="entity" data-entity="ContratLigne" data-source-line="69" data-uid="ent0008" id="entity_ContratLigne"><rect fill="#F1F1F1" height="129.4844" rx="2.5" ry="2.5" style="stroke:#181818;stroke-width:0.5;" width="261.6689" x="308.24" y="798.16"/><ellipse cx="372.614" cy="814.16" fill="#ADD1B2" rx="11" ry="11" style="stroke:#181818;stroke-width:1;"/><path d="M375.5828,819.8006 Q375.0046,820.0975 374.364,820.2381 Q373.7234,820.3944 373.0203,820.3944 Q370.5203,820.3944 369.1921,818.7538 Q367.8796,817.0975 367.8796,813.9725 Q367.8796,810.8475 369.1921,809.1913 Q370.5203,807.535 373.0203,807.535 Q373.7234,807.535 374.364,807.6913 Q375.0203,807.8475 375.5828,808.1444 L375.5828,810.8631 Q374.9578,810.285 374.364,810.0194 Q373.7703,809.7381 373.1453,809.7381 Q371.8015,809.7381 371.114,810.8163 Q370.4265,811.8788 370.4265,813.9725 Q370.4265,816.0663 371.114,817.1444 Q371.8015,818.2069 373.1453,818.2069 Q373.7703,818.2069 374.364,817.9413 Q374.9578,817.66 375.5828,817.0819 L375.5828,819.8006 Z " fill="#000000"/><text fill="#000000" font-family="sans-serif" font-size="14" lengthAdjust="spacing" textLength="124.4209" x="393.114" y="819.0067">parc.contrat.ligne</text><line style="stroke:#181818;stroke-width:0.5;" x1="309.24" x2="568.9089" y1="830.16" y2="830.16"/><text fill="#000000" font-family="sans-serif" font-size="14" lengthAdjust="spacing" textLength="24.5068" x="314.24" y="847.1551">+id</text><text fill="#000000" font-family="sans-serif" font-size="14" lengthAdjust="spacing" textLength="93.5703" x="314.24" y="863.452">+designation</text><text fill="#000000" font-family="sans-serif" font-size="14" lengthAdjust="spacing" textLength="105.3418" x="314.24" y="879.7489">+prix_mensuel</text><line style="stroke:#181818;stroke-width:1;" x1="309.24" x2="568.9089" y1="887.0506" y2="887.0506"/><text fill="#000000" font-family="sans-serif" font-size="14" lengthAdjust="spacing" textLength="197.0117" x="314.24" y="904.0457">+contrat_id    : m2o Contrat</text><text fill="#000000" font-family="sans-serif" font-size="14" lengthAdjust="spacing" textLength="249.6689" x="314.24" y="920.3426">+equipement_id : m2o Equipement</text></g><!--class Facture--><g class="entity" data-entity="Facture" data-source-line="78" data-uid="ent0009" id="entity_Facture"><rect fill="#F1F1F1" height="145.7813" rx="2.5" ry="2.5" style="stroke:#181818;stroke-width:0.5;" width="195.6611" x="77.24" y="790.01"/><ellipse cx="128.1677" cy="806.01" fill="#ADD1B2" rx="11" ry="11" style="stroke:#181818;stroke-width:1;"/><path d="M131.1365,811.6506 Q130.5584,811.9475 129.9177,812.0881 Q129.2771,812.2444 128.574,812.2444 Q126.074,812.2444 124.7459,810.6038 Q123.4334,808.9475 123.4334,805.8225 Q123.4334,802.6975 124.7459,801.0413 Q126.074,799.385 128.574,799.385 Q129.2771,799.385 129.9177,799.5413 Q130.574,799.6975 131.1365,799.9944 L131.1365,802.7131 Q130.5115,802.135 129.9177,801.8694 Q129.324,801.5881 128.699,801.5881 Q127.3552,801.5881 126.6677,802.6663 Q125.9802,803.7288 125.9802,805.8225 Q125.9802,807.9163 126.6677,808.9944 Q127.3552,810.0569 128.699,810.0569 Q129.324,810.0569 129.9177,809.7913 Q130.5115,809.51 131.1365,808.9319 L131.1365,811.6506 Z " fill="#000000"/><text fill="#000000" font-family="sans-serif" font-size="14" lengthAdjust="spacing" textLength="85.3057" x="148.6677" y="810.8567">parc.facture</text><line style="stroke:#181818;stroke-width:0.5;" x1="78.24" x2="271.9011" y1="822.01" y2="822.01"/><text fill="#000000" font-family="sans-serif" font-size="14" lengthAdjust="spacing" textLength="24.5068" x="83.24" y="839.0051">+id</text><text fill="#000000" font-family="sans-serif" font-size="14" lengthAdjust="spacing" textLength="79.1943" x="83.24" y="855.302">+reference</text><text fill="#000000" font-family="sans-serif" font-size="14" lengthAdjust="spacing" textLength="100.2354" x="83.24" y="871.5989">+date_facture</text><text fill="#000000" font-family="sans-serif" font-size="14" lengthAdjust="spacing" textLength="71.2373" x="83.24" y="887.8957">+montant</text><text fill="#000000" font-family="sans-serif" font-size="14" lengthAdjust="spacing" textLength="39.9014" x="83.24" y="904.1926">+etat</text><line style="stroke:#181818;stroke-width:1;" x1="78.24" x2="271.9011" y1="911.4944" y2="911.4944"/><text fill="#000000" font-family="sans-serif" font-size="14" lengthAdjust="spacing" textLength="183.6611" x="83.24" y="928.4895">+contrat_id : m2o Contrat</text></g><!--class Intervention--><g class="entity" data-entity="Intervention" data-source-line="88" data-uid="ent0010" id="entity_Intervention"><rect fill="#F1F1F1" height="210.9688" rx="2.5" ry="2.5" style="stroke:#181818;stroke-width:0.5;" width="261.6689" x="605.24" y="757.42"/><ellipse cx="671.5349" cy="773.42" fill="#ADD1B2" rx="11" ry="11" style="stroke:#181818;stroke-width:1;"/><path d="M674.5037,779.0606 Q673.9255,779.3575 673.2849,779.4981 Q672.6443,779.6544 671.9412,779.6544 Q669.4412,779.6544 668.113,778.0138 Q666.8005,776.3575 666.8005,773.2325 Q666.8005,770.1075 668.113,768.4513 Q669.4412,766.795 671.9412,766.795 Q672.6443,766.795 673.2849,766.9513 Q673.9412,767.1075 674.5037,767.4044 L674.5037,770.1231 Q673.8787,769.545 673.2849,769.2794 Q672.6912,768.9981 672.0662,768.9981 Q670.7224,768.9981 670.0349,770.0763 Q669.3474,771.1388 669.3474,773.2325 Q669.3474,775.3263 670.0349,776.4044 Q670.7224,777.4669 672.0662,777.4669 Q672.6912,777.4669 673.2849,777.2013 Q673.8787,776.92 674.5037,776.3419 L674.5037,779.0606 Z " fill="#000000"/><text fill="#000000" font-family="sans-serif" font-size="14" lengthAdjust="spacing" textLength="120.5791" x="692.0349" y="778.2667">parc.intervention</text><line style="stroke:#181818;stroke-width:0.5;" x1="606.24" x2="865.9089" y1="789.42" y2="789.42"/><text fill="#000000" font-family="sans-serif" font-size="14" lengthAdjust="spacing" textLength="24.5068" x="611.24" y="806.4151">+id</text><text fill="#000000" font-family="sans-serif" font-size="14" lengthAdjust="spacing" textLength="79.1943" x="611.24" y="822.712">+reference</text><text fill="#000000" font-family="sans-serif" font-size="14" lengthAdjust="spacing" textLength="119.123" x="611.24" y="839.0089">+date_ouverture</text><text fill="#000000" font-family="sans-serif" font-size="14" lengthAdjust="spacing" textLength="99.1826" x="611.24" y="855.3057">+date_cloture</text><text fill="#000000" font-family="sans-serif" font-size="14" lengthAdjust="spacing" textLength="89.5713" x="611.24" y="871.6026">+description</text><text fill="#000000" font-family="sans-serif" font-size="14" lengthAdjust="spacing" textLength="83.7813" x="611.24" y="887.8995">+diagnostic</text><text fill="#000000" font-family="sans-serif" font-size="14" lengthAdjust="spacing" textLength="39.9014" x="611.24" y="904.1964">+etat</text><line style="stroke:#181818;stroke-width:1;" x1="606.24" x2="865.9089" y1="911.4981" y2="911.4981"/><text fill="#000000" font-family="sans-serif" font-size="14" lengthAdjust="spacing" textLength="207.9424" x="611.24" y="928.4932">+client_id     : m2o ParcClient</text><text fill="#000000" font-family="sans-serif" font-size="14" lengthAdjust="spacing" textLength="249.6689" x="611.24" y="944.7901">+equipement_id : m2o Equipement</text><text fill="#000000" font-family="sans-serif" font-size="14" lengthAdjust="spacing" textLength="218.0322" x="611.24" y="961.087">+technicien_id : m2o ResUsers</text></g><!--reverse link ResPartner to ParcClient--><g class="link" data-entity-1="ResPartner" data-entity-2="ParcClient" data-source-line="102" data-uid="lnk11" id="link_ResPartner_ParcClient"><path codeLine="102" d="M355.1583,184.3077 C371.5283,209.0277 379.61,221.22 395.97,245.94" fill="none" id="ResPartner-backto-ParcClient" style="stroke:#181818;stroke-width:1;"/><polygon fill="none" points="345.22,169.3,350.1558,187.6204,360.1609,180.9949,345.22,169.3" style="stroke:#181818;stroke-width:1;"/><text fill="#000000" font-family="sans-serif" font-size="13" lengthAdjust="spacing" textLength="143.1841" x="377.07" y="212.1469">inheritance (_inherits)</text></g><!--reverse link ResPartner to ResUsers--><g class="link" data-entity-1="ResPartner" data-entity-2="ResUsers" data-source-line="103" data-uid="lnk12" id="link_ResPartner_ResUsers"><path codeLine="103" d="M272.4567,175.15 C265.5667,205.38 259.17,233.47 252.67,262.03" fill="none" id="ResPartner-backto-ResUsers" style="stroke:#181818;stroke-width:1;"/><polygon fill="#181818" points="273.79,169.3,267.89,177.1861,272.6789,174.175,275.69,178.9638,273.79,169.3" style="stroke:#181818;stroke-width:1;"/><text fill="#000000" font-family="sans-serif" font-size="13" lengthAdjust="spacing" textLength="66.606" x="268.07" y="212.1469">partner_id</text><text fill="#000000" font-family="sans-serif" font-size="13" lengthAdjust="spacing" textLength="8.271" x="263.8174" y="189.2781">1</text></g><!--reverse link ParcClient to ClientSite--><g class="link" data-entity-1="ParcClient" data-entity-2="ClientSite" data-source-line="105" data-uid="lnk13" id="link_ParcClient_ClientSite"><path codeLine="105" d="M327.6022,404.2389 C274.6422,437.5489 231.7,464.76 226.07,469.16 C204.09,486.33 181.55,506.96 162.14,525.85" fill="none" id="ParcClient-backto-ClientSite" style="stroke:#181818;stroke-width:1;"/><polygon fill="none" points="337.76,397.85,330.5514,397.6585,327.6022,404.2389,334.8107,404.4304,337.76,397.85" style="stroke:#181818;stroke-width:1;"/><text fill="#000000" font-family="sans-serif" font-size="13" lengthAdjust="spacing" textLength="8.271" x="322.0217" y="399.1697">1</text><text fill="#000000" font-family="sans-serif" font-size="13" lengthAdjust="spacing" textLength="23.0356" x="144.3303" y="515.0721">0..*</text></g><!--reverse link ParcClient to Equipement--><g class="link" data-entity-1="ParcClient" data-entity-2="Equipement" data-source-line="106" data-uid="lnk14" id="link_ParcClient_Equipement"><path codeLine="106" d="M496.7241,419.0068 C506.7741,438.1668 512.11,448.35 522.77,468.68" fill="none" id="ParcClient-backto-Equipement" style="stroke:#181818;stroke-width:1;"/><polygon fill="none" points="491.15,408.38,490.3948,415.5514,496.7241,419.0068,497.4793,411.8354,491.15,408.38" style="stroke:#181818;stroke-width:1;"/><text fill="#000000" font-family="sans-serif" font-size="13" lengthAdjust="spacing" textLength="8.271" x="486.5535" y="428.3581">1</text><text fill="#000000" font-family="sans-serif" font-size="13" lengthAdjust="spacing" textLength="23.0356" x="495.2355" y="457.9603">0..*</text></g><!--reverse link ParcClient to Contrat--><g class="link" data-entity-1="ParcClient" data-entity-2="Contrat" data-source-line="107" data-uid="lnk15" id="link_ParcClient_Contrat"><path codeLine="107" d="M411.6116,419.4846 C401.6216,443.8746 395.08,459.82 384.69,485.16" fill="none" id="ParcClient-backto-Contrat" style="stroke:#181818;stroke-width:1;"/><polygon fill="none" points="416.16,408.38,410.1843,412.4162,411.6116,419.4846,417.5873,415.4484,416.16,408.38" style="stroke:#181818;stroke-width:1;"/><text fill="#000000" font-family="sans-serif" font-size="13" lengthAdjust="spacing" textLength="8.271" x="404.8847" y="428.3581">1</text><text fill="#000000" font-family="sans-serif" font-size="13" lengthAdjust="spacing" textLength="23.0356" x="363.7563" y="474.5116">0..*</text></g><!--reverse link ParcClient to Intervention--><g class="link" data-entity-1="ParcClient" data-entity-2="Intervention" data-source-line="108" data-uid="lnk16" id="link_ParcClient_Intervention"><path codeLine="108" d="M571.1828,367.6198 C622.7028,389.6598 668.57,418.97 701.07,469.16 C756.24,554.34 759.25,672.57 752.01,757.01" fill="none" id="ParcClient-backto-Intervention" style="stroke:#181818;stroke-width:1;"/><polygon fill="none" points="560.15,362.9,564.0932,368.9375,571.1828,367.6198,567.2397,361.5823,560.15,362.9" style="stroke:#181818;stroke-width:1;"/><text fill="#000000" font-family="sans-serif" font-size="13" lengthAdjust="spacing" textLength="8.271" x="567.891" y="361.8715">1</text><text fill="#000000" font-family="sans-serif" font-size="13" lengthAdjust="spacing" textLength="23.0356" x="729.3092" y="746.4627">0..*</text></g><!--reverse link Contrat to Facture--><g class="link" data-entity-1="Contrat" data-entity-2="Facture" data-source-line="109" data-uid="lnk17" id="link_Contrat_Facture"><path codeLine="109" d="M279.832,690.519 C257.872,726.449 239.6,756.33 219.2,789.71" fill="none" id="Contrat-backto-Facture" style="stroke:#181818;stroke-width:1;"/><polygon fill="none" points="286.09,680.28,279.548,683.3135,279.832,690.519,286.374,687.4855,286.09,680.28" style="stroke:#181818;stroke-width:1;"/><text fill="#000000" font-family="sans-serif" font-size="13" lengthAdjust="spacing" textLength="8.271" x="273.4748" y="700.0623">1</text><text fill="#000000" font-family="sans-serif" font-size="13" lengthAdjust="spacing" textLength="23.0356" x="199.4137" y="778.8404">0..*</text></g><!--reverse link Contrat to ContratLigne--><g class="link" data-entity-1="Contrat" data-entity-2="ContratLigne" data-source-line="110" data-uid="lnk18" id="link_Contrat_ContratLigne"><path codeLine="110" d="M381.522,691.6483 C394.672,730.5583 405.65,763.02 417.43,797.87" fill="none" id="Contrat-backto-ContratLigne" style="stroke:#181818;stroke-width:1;"/><polygon fill="none" points="377.68,680.28,375.8116,687.2448,381.522,691.6483,383.3905,684.6835,377.68,680.28" style="stroke:#181818;stroke-width:1;"/><text fill="#000000" font-family="sans-serif" font-size="13" lengthAdjust="spacing" textLength="8.271" x="371.7909" y="700.0623">1</text><text fill="#000000" font-family="sans-serif" font-size="13" lengthAdjust="spacing" textLength="23.0356" x="390.8068" y="787.0109">0..*</text></g><!--link Equipement to ContratLigne--><g class="link" data-entity-1="Equipement" data-entity-2="ContratLigne" data-source-line="111" data-uid="lnk19" id="link_Equipement_ContratLigne"><path codeLine="111" d="M523.91,696.91 C506.2,731.35 487.36,767.99 471.95,797.97" fill="none" id="Equipement-ContratLigne" style="stroke:#181818;stroke-width:1;"/><text fill="#000000" font-family="sans-serif" font-size="13" lengthAdjust="spacing" textLength="23.0356" x="496.6661" y="716.392">0..*</text><text fill="#000000" font-family="sans-serif" font-size="13" lengthAdjust="spacing" textLength="23.0356" x="451.2899" y="787.1219">0..*</text></g><!--link Equipement to Intervention--><g class="link" data-entity-1="Equipement" data-entity-2="Intervention" data-source-line="112" data-uid="lnk20" id="link_Equipement_Intervention"><path codeLine="112" d="M644.71,696.91 C655.7,716.76 664.1943,732.0905 675.0543,751.7105" fill="none" id="Equipement-to-Intervention" style="stroke:#181818;stroke-width:1;"/><polygon fill="#181818" points="677.96,756.96,677.1011,747.1487,675.5386,752.5854,670.1018,751.0229,677.96,756.96" style="stroke:#181818;stroke-width:1;"/><text fill="#000000" font-family="sans-serif" font-size="13" lengthAdjust="spacing" textLength="8.271" x="640.2916" y="716.392">1</text><text fill="#000000" font-family="sans-serif" font-size="13" lengthAdjust="spacing" textLength="23.0356" x="650.284" y="746.4093">0..*</text></g><!--SRC=[dLHDZziW4BtxLo2V-g5Okpr6KQJLgfLMgjIggvuHmMCR5OCNyBRRZ__U0Mo3iqcwQWuECymmxxs1iT-46fXXFU6IMNlZd167qS4Tr-fU_0HoLOGDKXgm5KOw1QOap98lO3z7a_mg27ahQh8bGZbemNXRiHxGmpiMJEYPa9azT5hb-zOP09SvXALSzmDJJ-WyQ2s1AVHN5Nvskq-rrkJ0BEptnPyYnpXQC7P6-DKRCpx_bReLAjJ7XE_QrBHZjlEErkXni3I4NIo28l2AIm7AXJAe0hyDPbu8eGnQMNQGAvR2WADAD8GaxsOJ0GKnQT2nVwSpWPD-uRSb1YHp4Eeua12rNFjPZGWihEDFagYiS12OH1RtQEPCV2Ep4nV0CJlXJJeSru67KGpGpuAzNynJPTpJ4FvxPXx6kD8raWmnOmz6Ksog27QDh2ZZU1vo43eqjiNRh9m0siH6WsFk9PX3T_0ut2FJRjBZcN9QESCYdTkuNZU_0GEABuJebB20hW5VsM9DK1k3IlaqsZ3k8dNba0r5iUm8CZuKvaRt7rsO85HIj0fov1-z8uTVWqKNcnKTZFYH8PZgnjmerwnN8fbQdg2blXz3ytH74q5zYEkpSaR1Ob0cqVDM9u1hT4Ur_SWoZmWAsGO0TvdZCWezFeAPSGGFbtgnmN8ZXbd4Mh1MQUi4lt0favJhY_aFDSCOu9qI71DM0oJCFyyuczQxtvjDFhJyrExmHQ6A7CWhEbdsTPvKNfTaXtdBJDsIDB2A8ZlEHsgCBA-gwasPlw7pGHcN2oTD_JiVaNUkc9_bST1qlyxkvu-Yo4RLjFs2m6iVjJy5wYy0]--></g></svg>