<svg xmlns="http://www.w3.org/2000/svg" xmlns:xlink="http://www.w3.org/1999/xlink" contentStyleType="text/css" data-diagram-type="DESCRIPTION" height="969px" preserveAspectRatio="none" style="width:476px;height:969px;background:#FFFFFF;" version="1.1" viewBox="0 0 476 969" width="476px" zoomAndPan="magnify"><defs/><g><!--cluster Portail Client--><g class="cluster" data-entity="Portail Client" data-source-line="8" data-uid="ent0006" id="cluster_Portail Client"><rect fill="none" height="340" rx="2.5" ry="2.5" style="stroke:#181818;stroke-width:1;" width="269.87" x="170.01" y="623"/><text fill="#000000" font-family="sans-serif" font-size="14" font-weight="bold" lengthAdjust="spacing" textLength="103.4209" x="253.2346" y="637.9951">Portail Client</text></g><!--cluster Back-office--><g class="cluster" data-entity="Back-office" data-source-line="15" data-uid="ent0011" id="cluster_Back-office"><rect fill="none" height="366" rx="2.5" ry="2.5" style="stroke:#181818;stroke-width:1;" width="295.73" x="157.08" y="233"/><text fill="#000000" font-family="sans-serif" font-size="14" font-weight="bold" lengthAdjust="spacing" textLength="87.9307" x="260.9797" y="247.9951">Back-office</text></g><!--cluster Automatisation--><g class="cluster" data-entity="Automatisation" data-source-line="22" data-uid="ent0016" id="cluster_Automatisation"><rect fill="none" height="202" rx="2.5" ry="2.5" style="stroke:#181818;stroke-width:1;" width="331.33" x="139.28" y="7"/><text fill="#000000" font-family="sans-serif" font-size="14" font-weight="bold" lengthAdjust="spacing" textLength="121.4951" x="244.1974" y="21.9951">Automatisation</text></g><!--entity UC1--><g class="entity" data-entity="UC1" data-source-line="9" data-uid="ent0007" id="entity_UC1"><ellipse cx="304.9481" cy="926.0036" fill="#F1F1F1" rx="93.8181" ry="21.1636" style="stroke:#181818;stroke-width:0.5;"/><text fill="#000000" font-family="sans-serif" font-size="14" lengthAdjust="spacing" textLength="162.333" x="223.7816" y="930.6521">UC-1  Consulter le parc</text></g><!--entity UC2--><g class="entity" data-entity="UC2" data-source-line="10" data-uid="ent0008" id="entity_UC2"><ellipse cx="304.9455" cy="844.9951" fill="#F1F1F1" rx="113.0755" ry="25.0151" style="stroke:#181818;stroke-width:0.5;"/><text fill="#000000" font-family="sans-serif" font-size="14" lengthAdjust="spacing" textLength="183.6406" x="213.1252" y="845.6501">UC-2  T&#233;l&#233;charger / signer</text><text fill="#000000" font-family="sans-serif" font-size="14" lengthAdjust="spacing" textLength="81.4775" x="264.2067" y="861.947">les factures</text></g><!--entity UC3--><g class="entity" data-entity="UC3" data-source-line="11" data-uid="ent0009" id="entity_UC3"><ellipse cx="304.9453" cy="758.9971" fill="#F1F1F1" rx="118.9353" ry="26.1871" style="stroke:#181818;stroke-width:0.5;"/><text fill="#000000" font-family="sans-serif" font-size="14" lengthAdjust="spacing" textLength="147.3281" x="231.2813" y="753.8891">UC-3  Cr&#233;er un ticket</text><text fill="#000000" font-family="sans-serif" font-size="14" lengthAdjust="spacing" textLength="179.4092" x="215.2407" y="770.1859">(demande d'intervention)</text></g><!--entity UC4--><g class="entity" data-entity="UC4" data-source-line="12" data-uid="ent0010" id="entity_UC4"><ellipse cx="304.9496" cy="677.9979" fill="#F1F1F1" rx="89.2396" ry="20.2479" style="stroke:#181818;stroke-width:0.5;"/><text fill="#000000" font-family="sans-serif" font-size="14" lengthAdjust="spacing" textLength="152.0176" x="228.9408" y="682.6463">UC-4  G&#233;rer son profil</text></g><!--entity UC5--><g class="entity" data-entity="UC5" data-source-line="16" data-uid="ent0012" id="entity_UC5"><ellipse cx="304.9458" cy="556.9992" fill="#F1F1F1" rx="119.4958" ry="26.2992" style="stroke:#181818;stroke-width:0.5;"/><text fill="#000000" font-family="sans-serif" font-size="14" lengthAdjust="spacing" textLength="218.2783" x="195.8067" y="561.6476">UC-5  Cr&#233;er / modifier un client</text></g><!--entity UC6--><g class="entity" data-entity="UC6" data-source-line="17" data-uid="ent0013" id="entity_UC6"><ellipse cx="304.9483" cy="473.9957" fill="#F1F1F1" rx="95.7783" ry="21.5557" style="stroke:#181818;stroke-width:0.5;"/><text fill="#000000" font-family="sans-serif" font-size="14" lengthAdjust="spacing" textLength="166.708" x="221.5943" y="478.6441">UC-6  D&#233;finir un contrat</text></g><!--entity UC7--><g class="entity" data-entity="UC7" data-source-line="18" data-uid="ent0014" id="entity_UC7"><ellipse cx="304.9488" cy="388.9958" fill="#F1F1F1" rx="128.4288" ry="28.0858" style="stroke:#181818;stroke-width:0.5;"/><text fill="#000000" font-family="sans-serif" font-size="14" lengthAdjust="spacing" textLength="237.2549" x="186.3214" y="393.6442">UC-7  Assigner / cl&#244;turer un ticket</text></g><!--entity UC8--><g class="entity" data-entity="UC8" data-source-line="19" data-uid="ent0015" id="entity_UC8"><ellipse cx="304.9541" cy="297.0028" fill="#F1F1F1" rx="131.8641" ry="28.7728" style="stroke:#181818;stroke-width:0.5;"/><text fill="#000000" font-family="sans-serif" font-size="14" lengthAdjust="spacing" textLength="244.5078" x="182.7001" y="301.6512">UC-8  Mettre &#224; jour un &#233;quipement</text></g><!--entity UC9--><g class="entity" data-entity="UC9" data-source-line="23" data-uid="ent0017" id="entity_UC9"><ellipse cx="304.9464" cy="167.0033" fill="#F1F1F1" rx="116.5664" ry="25.7133" style="stroke:#181818;stroke-width:0.5;"/><text fill="#000000" font-family="sans-serif" font-size="14" lengthAdjust="spacing" textLength="198.0439" x="205.9244" y="168.679">UC-9  G&#233;n&#233;rer la facturation</text><text fill="#000000" font-family="sans-serif" font-size="14" lengthAdjust="spacing" textLength="74.04" x="267.9264" y="184.9759">r&#233;currente</text></g><!--entity UC10--><g class="entity" data-entity="UC10" data-source-line="24" data-uid="ent0018" id="entity_UC10"><ellipse cx="304.9546" cy="74.0029" fill="#F1F1F1" rx="149.6646" ry="32.3329" style="stroke:#181818;stroke-width:0.5;"/><text fill="#000000" font-family="sans-serif" font-size="14" lengthAdjust="spacing" textLength="281.7842" x="164.0625" y="78.6514">UC-10 Rappels fins de contrat / garantie</text></g><!--entity Client--><g class="entity" data-entity="Client" data-source-line="3" data-uid="ent0002" id="entity_Client"><ellipse cx="50.6451" cy="772.35" fill="#F1F1F1" rx="8" ry="8" style="stroke:#181818;stroke-width:0.5;"/><path d="M50.6451,780.35 L50.6451,807.35 M37.6451,788.35 L63.6451,788.35 M50.6451,807.35 L37.6451,822.35 M50.6451,807.35 L63.6451,822.35" fill="none" style="stroke:#181818;stroke-width:0.5;"/><text fill="#000000" font-family="sans-serif" font-size="14" lengthAdjust="spacing" textLength="40.5303" x="30.38" y="836.8451">Client</text></g><!--entity Technicien--><g class="entity" data-entity="Technicien" data-source-line="4" data-uid="ent0003" id="entity_Technicien"><ellipse cx="50.6456" cy="300.35" fill="#F1F1F1" rx="8" ry="8" style="stroke:#181818;stroke-width:0.5;"/><path d="M50.6456,308.35 L50.6456,335.35 M37.6456,316.35 L63.6456,316.35 M50.6456,335.35 L37.6456,350.35 M50.6456,335.35 L63.6456,350.35" fill="none" style="stroke:#181818;stroke-width:0.5;"/><text fill="#000000" font-family="sans-serif" font-size="14" lengthAdjust="spacing" textLength="75.5713" x="12.86" y="364.8451">Technicien</text></g><!--entity Admin--><g class="entity" data-entity="Admin" data-source-line="5" data-uid="ent0004" id="entity_Admin"><ellipse cx="50.6421" cy="428.35" fill="#F1F1F1" rx="8" ry="8" style="stroke:#181818;stroke-width:0.5;"/><path d="M50.6421,436.35 L50.6421,463.35 M37.6421,444.35 L63.6421,444.35 M50.6421,463.35 L37.6421,478.35 M50.6421,463.35 L63.6421,478.35" fill="none" style="stroke:#181818;stroke-width:0.5;"/><text fill="#000000" font-family="sans-serif" font-size="14" lengthAdjust="spacing" textLength="89.2842" x="6" y="492.8451">Gestionnaire</text></g><!--entity Cron--><g class="entity" data-entity="Cron" data-source-line="6" data-uid="ent0005" id="entity_Cron"><ellipse cx="50.6449" cy="91.35" fill="#F1F1F1" rx="8" ry="8" style="stroke:#181818;stroke-width:0.5;"/><path d="M50.6449,99.35 L50.6449,126.35 M37.6449,107.35 L63.6449,107.35 M50.6449,126.35 L37.6449,141.35 M50.6449,126.35 L63.6449,141.35" fill="none" style="stroke:#181818;stroke-width:0.5;"/><text fill="#000000" font-family="sans-serif" font-size="14" lengthAdjust="spacing" textLength="32.9697" x="34.16" y="155.8451">Cron</text></g><!--link Client to UC1--><g class="link" data-entity-1="Client" data-entity-2="UC1" data-source-line="27" data-uid="lnk19" id="link_Client_UC1"><path d="M71.27,831.07 C85.68,850.14 106.92,874.04 131.28,888 C157.52,903.03 183.235,911.0025 212.195,916.4925" fill="none" id="Client-to-UC1" style="stroke:#181818;stroke-width:1;"/><polygon fill="#181818" points="218.09,917.61,209.9925,912.0037,213.1775,916.6787,208.5025,919.8637,218.09,917.61" style="stroke:#181818;stroke-width:1;"/></g><!--link Client to UC2--><g class="link" data-entity-1="Client" data-entity-2="UC2" data-source-line="28" data-uid="lnk20" id="link_Client_UC2"><path d="M71.02,805.3 C101.48,810.49 156.5453,819.8818 208.4653,828.7318" fill="none" id="Client-to-UC2" style="stroke:#181818;stroke-width:1;"/><polygon fill="#181818" points="214.38,829.74,206.1801,824.2846,209.4511,828.8998,204.8358,832.1708,214.38,829.74" style="stroke:#181818;stroke-width:1;"/></g><!--link Client to UC3--><g class="link" data-entity-1="Client" data-entity-2="UC3" data-source-line="29" data-uid="lnk21" id="link_Client_UC3"><path d="M71.02,798.7 C100.56,793.66 152.8754,784.7485 203.7254,776.0785" fill="none" id="Client-to-UC3" style="stroke:#181818;stroke-width:1;"/><polygon fill="#181818" points="209.64,775.07,200.0957,772.6396,204.7111,775.9104,201.4403,780.5258,209.64,775.07" style="stroke:#181818;stroke-width:1;"/></g><!--link Client to UC4--><g class="link" data-entity-1="Client" data-entity-2="UC4" data-source-line="30" data-uid="lnk22" id="link_Client_UC4"><path d="M71.18,772.54 C85.54,753.23 106.77,729.05 131.28,715 C158.42,699.45 185.4307,691.4594 215.2207,686.2194" fill="none" id="Client-to-UC4" style="stroke:#181818;stroke-width:1;"/><polygon fill="#181818" points="221.13,685.18,211.5731,682.7996,216.2056,686.0462,212.959,690.6787,221.13,685.18" style="stroke:#181818;stroke-width:1;"/></g><!--link Technicien to UC7--><g class="link" data-entity-1="Technicien" data-entity-2="UC7" data-source-line="32" data-uid="lnk23" id="link_Technicien_UC7"><path d="M88.87,338.71 C122.18,346.49 166.4776,356.8538 209.9676,367.0238" fill="none" id="Technicien-to-UC7" style="stroke:#181818;stroke-width:1;"/><polygon fill="#181818" points="215.81,368.39,207.9572,362.4457,210.9413,367.2515,206.1356,370.2356,215.81,368.39" style="stroke:#181818;stroke-width:1;"/></g><!--link Technicien to UC8--><g class="link" data-entity-1="Technicien" data-entity-2="UC8" data-source-line="33" data-uid="lnk24" id="link_Technicien_UC8"><path d="M88.87,325.13 C115.94,321.59 148.1807,317.3681 184.8807,312.5681" fill="none" id="Technicien-to-UC8" style="stroke:#181818;stroke-width:1;"/><polygon fill="#181818" points="190.83,311.79,181.3873,308.991,185.8722,312.4384,182.4247,316.9234,190.83,311.79" style="stroke:#181818;stroke-width:1;"/></g><!--link Admin to UC5--><g class="link" data-entity-1="Admin" data-entity-2="UC5" data-source-line="35" data-uid="lnk25" id="link_Admin_UC5"><path d="M95.46,492.35 C106.68,499.97 119.05,507.43 131.28,513 C156.63,524.53 179.6663,531.946 206.4463,538.586" fill="none" id="Admin-to-UC5" style="stroke:#181818;stroke-width:1;"/><polygon fill="#181818" points="212.27,540.03,204.4971,533.9816,207.417,538.8267,202.5719,541.7465,212.27,540.03" style="stroke:#181818;stroke-width:1;"/></g><!--link Admin to UC6--><g class="link" data-entity-1="Admin" data-entity-2="UC6" data-source-line="36" data-uid="lnk26" id="link_Admin_UC6"><path d="M95.59,460.79 C127.71,462.82 166.432,465.2807 206.212,467.8007" fill="none" id="Admin-to-UC6" style="stroke:#181818;stroke-width:1;"/><polygon fill="#181818" points="212.2,468.18,203.4709,463.619,207.21,467.8639,202.9651,471.603,212.2,468.18" style="stroke:#181818;stroke-width:1;"/></g><!--link Admin to UC7--><g class="link" data-entity-1="Admin" data-entity-2="UC7" data-source-line="37" data-uid="lnk27" id="link_Admin_UC7"><path d="M95.41,445.18 C107.06,441.82 119.64,438.23 131.28,435 C160.58,426.87 186.9504,419.7578 215.5004,412.1878" fill="none" id="Admin-to-UC7" style="stroke:#181818;stroke-width:1;"/><polygon fill="#181818" points="221.3,410.65,211.5754,409.0902,216.467,411.9315,213.6258,416.823,221.3,410.65" style="stroke:#181818;stroke-width:1;"/></g><!--link Admin to UC8--><g class="link" data-entity-1="Admin" data-entity-2="UC8" data-source-line="38" data-uid="lnk28" id="link_Admin_UC8"><path d="M74.36,419.39 C92.26,390.16 116.58,353.34 131.28,343 C150.32,329.62 167.2698,321.8431 189.8598,315.1131" fill="none" id="Admin-to-UC8" style="stroke:#181818;stroke-width:1;"/><polygon fill="#181818" points="195.61,313.4,185.8426,312.1362,190.8181,314.8276,188.1267,319.8032,195.61,313.4" style="stroke:#181818;stroke-width:1;"/></g><!--link Cron to UC9--><g class="link" data-entity-1="Cron" data-entity-2="UC9" data-source-line="40" data-uid="lnk29" id="link_Cron_UC9"><path d="M67.43,123.88 C96.39,129.16 154.1173,139.684 208.0973,149.524" fill="none" id="Cron-to-UC9" style="stroke:#181818;stroke-width:1;"/><polygon fill="#181818" points="214,150.6,205.8632,145.0508,209.0811,149.7033,204.4286,152.9211,214,150.6" style="stroke:#181818;stroke-width:1;"/></g><!--link Cron to UC10--><g class="link" data-entity-1="Cron" data-entity-2="UC10" data-source-line="41" data-uid="lnk30" id="link_Cron_UC10"><path d="M67.43,118.06 C92.24,113.44 136.5915,105.179 184.4115,96.269" fill="none" id="Cron-to-UC10" style="stroke:#181818;stroke-width:1;"/><polygon fill="#181818" points="190.31,95.17,180.7296,92.8862,185.3946,96.0859,182.195,100.7509,190.31,95.17" style="stroke:#181818;stroke-width:1;"/></g><!--SRC=[PLDDRzim3BthLn2vT3i4pVV7PK3c0JqLABRsbeiWqmuRMV8akK0nxB_iwll-WV_OQ5jPOoSdFuhlaNnaD6O1WWL7-Ib0IWvL86k4FvCffPC5b5ATPOu_mhj6Q9-5LC4wI3IXkO1dL2T3YYCny82-rJ6I5K5wEAG5NTuInmL4r8N9atL1aew24_Wb02gFIdf-V4ccSu346b_fW0wu1svBJLhDbsG-Ibq0F3UrRcfraYxdz7lmb1jqHwFHGyRrAuS-iXSZzf8BkQPcMcKWa3fZE9fFAHRIf0Zf7Hdku8rxvC4-HutbI6C5yD3KZZMyDL0wcv6EgIln-shgh_mnjLb62cz7Nl_lv1uAcr96VLCgMjJfhKUa3S2tfix8K9zhJN2Iao-_ZhGPaRO01zzxnBMKRlws3bqv48jjHxmTm2E6mCjj_i2hhJf6K_-igCJYeyVTOEP35MmX0tdPMdWxzhupp_J-QHdtrIKV3VkXAkTO6wFuVdmeC_Wkon8rRvgC1rvQD857o_cOUNCNxdpMTjQV74odNxfZ6i3542w7S2N4nyt7sFOsj1EYk_m8rmEq6Q3j036n_Pj4jBy6yza_]--></g></svg>