<svg xmlns="http://www.w3.org/2000/svg" xmlns:xlink="http://www.w3.org/1999/xlink" contentStyleType="text/css" data-diagram-type="SEQUENCE" height="270px" preserveAspectRatio="none" style="width:869px;height:270px;background:#FFFFFF;" version="1.1" viewBox="0 0 869 270" width="869px" zoomAndPan="magnify"><defs/><g><rect fill="none" height="46.2656" style="stroke:#000000;stroke-width:1.5;" width="379.3027" x="483.9282" y="82.4297"/><rect fill="none" height="46.2656" style="stroke:#000000;stroke-width:1.5;" width="379.3027" x="483.9282" y="171.8281"/><g><title>Cron</title><rect fill="#000000" fill-opacity="0.00000" height="198.7969" width="8" x="24.4849" y="36.2969"/><line style="stroke:#181818;stroke-width:0.5;stroke-dasharray:5.0,5.0;" x1="28" x2="28" y1="36.2969" y2="235.0938"/></g><g><title>parc.equipement</title><rect fill="#000000" fill-opacity="0.00000" height="198.7969" width="8" x="284.0908" y="36.2969"/><line style="stroke:#181818;stroke-width:0.5;stroke-dasharray:5.0,5.0;" x1="287.2183" x2="287.2183" y1="36.2969" y2="235.0938"/></g><g><title>Contrat</title><rect fill="#000000" fill-opacity="0.00000" height="198.7969" width="8" x="394.2271" y="36.2969"/><line style="stroke:#181818;stroke-width:0.5;stroke-dasharray:5.0,5.0;" x1="397.9634" x2="397.9634" y1="36.2969" y2="235.0938"/></g><g><title>Mail</title><rect fill="#000000" fill-opacity="0.00000" height="198.7969" width="8" x="458.7095" y="36.2969"/><line style="stroke:#181818;stroke-width:0.5;stroke-dasharray:5.0,5.0;" x1="462.4907" x2="462.4907" y1="36.2969" y2="235.0938"/></g><g><title>Client</title><rect fill="#000000" fill-opacity="0.00000" height="198.7969" width="8" x="517.1934" y="36.2969"/><line style="stroke:#181818;stroke-width:0.5;stroke-dasharray:5.0,5.0;" x1="520.9282" x2="520.9282" y1="36.2969" y2="235.0938"/></g><g><title>Mail</title><rect fill="#000000" fill-opacity="0.00000" height="198.7969" width="8" x="828.0122" y="36.2969"/><line style="stroke:#181818;stroke-width:0.5;stroke-dasharray:5.0,5.0;" x1="831.7935" x2="831.7935" y1="36.2969" y2="235.0938"/></g><g class="participant participant-head" data-participant="Cron"><rect fill="#E2E2F0" height="30.2969" rx="2.5" ry="2.5" style="stroke:#181818;stroke-width:0.5;" width="46.9697" x="5" y="5"/><text fill="#000000" font-family="sans-serif" font-size="14" lengthAdjust="spacing" textLength="32.9697" x="12" y="24.9951">Cron</text></g><g class="participant participant-tail" data-participant="Cron"><rect fill="#E2E2F0" height="30.2969" rx="2.5" ry="2.5" style="stroke:#181818;stroke-width:0.5;" width="46.9697" x="5" y="234.0938"/><text fill="#000000" font-family="sans-serif" font-size="14" lengthAdjust="spacing" textLength="32.9697" x="12" y="254.0889">Cron</text></g><g class="participant participant-head" data-participant="Equip"><rect fill="#E2E2F0" height="30.2969" rx="2.5" ry="2.5" style="stroke:#181818;stroke-width:0.5;" width="133.7451" x="221.2183" y="5"/><text fill="#000000" font-family="sans-serif" font-size="14" lengthAdjust="spacing" textLength="119.7451" x="228.2183" y="24.9951">parc.equipement</text></g><g class="participant participant-tail" data-participant="Equip"><rect fill="#E2E2F0" height="30.2969" rx="2.5" ry="2.5" style="stroke:#181818;stroke-width:0.5;" width="133.7451" x="221.2183" y="234.0938"/><text fill="#000000" font-family="sans-serif" font-size="14" lengthAdjust="spacing" textLength="119.7451" x="228.2183" y="254.0889">parc.equipement</text></g><g class="participant participant-head" data-participant="Contrat"><rect fill="#E2E2F0" height="30.2969" rx="2.5" ry="2.5" style="stroke:#181818;stroke-width:0.5;" width="66.5273" x="364.9634" y="5"/><text fill="#000000" font-family="sans-serif" font-size="14" lengthAdjust="spacing" textLength="52.5273" x="371.9634" y="24.9951">Contrat</text></g><g class="participant participant-tail" data-participant="Contrat"><rect fill="#E2E2F0" height="30.2969" rx="2.5" ry="2.5" style="stroke:#181818;stroke-width:0.5;" width="66.5273" x="364.9634" y="234.0938"/><text fill="#000000" font-family="sans-serif" font-size="14" lengthAdjust="spacing" textLength="52.5273" x="371.9634" y="254.0889">Contrat</text></g><g class="participant participant-head" data-participant="SMTP"><rect fill="#E2E2F0" height="30.2969" rx="2.5" ry="2.5" style="stroke:#181818;stroke-width:0.5;" width="42.4375" x="441.4907" y="5"/><text fill="#000000" font-family="sans-serif" font-size="14" lengthAdjust="spacing" textLength="28.4375" x="448.4907" y="24.9951">Mail</text></g><g class="participant participant-tail" data-participant="SMTP"><rect fill="#E2E2F0" height="30.2969" rx="2.5" ry="2.5" style="stroke:#181818;stroke-width:0.5;" width="42.4375" x="441.4907" y="234.0938"/><text fill="#000000" font-family="sans-serif" font-size="14" lengthAdjust="spacing" textLength="28.4375" x="448.4907" y="254.0889">Mail</text></g><g class="participant participant-head" data-participant="Client"><rect fill="#E2E2F0" height="30.2969" rx="2.5" ry="2.5" style="stroke:#181818;stroke-width:0.5;" width="54.5303" x="493.9282" y="5"/><text fill="#000000" font-family="sans-serif" font-size="14" lengthAdjust="spacing" textLength="40.5303" x="500.9282" y="24.9951">Client</text></g><g class="participant participant-tail" data-participant="Client"><rect fill="#E2E2F0" height="30.2969" rx="2.5" ry="2.5" style="stroke:#181818;stroke-width:0.5;" width="54.5303" x="493.9282" y="234.0938"/><text fill="#000000" font-family="sans-serif" font-size="14" lengthAdjust="spacing" textLength="40.5303" x="500.9282" y="254.0889">Client</text></g><g class="participant participant-head" data-participant="Mail"><rect fill="#E2E2F0" height="30.2969" rx="2.5" ry="2.5" style="stroke:#181818;stroke-width:0.5;" width="42.4375" x="810.7935" y="5"/><text fill="#000000" font-family="sans-serif" font-size="14" lengthAdjust="spacing" textLength="28.4375" x="817.7935" y="24.9951">Mail</text></g><g class="participant participant-tail" data-participant="Mail"><rect fill="#E2E2F0" height="30.2969" rx="2.5" ry="2.5" style="stroke:#181818;stroke-width:0.5;" width="42.4375" x="810.7935" y="234.0938"/><text fill="#000000" font-family="sans-serif" font-size="14" lengthAdjust="spacing" textLength="28.4375" x="817.7935" y="254.0889">Mail</text></g><g class="message" data-participant-1="Cron" data-participant-2="Equip"><polygon fill="#181818" points="276.0908,63.4297,286.0908,67.4297,276.0908,71.4297,280.0908,67.4297" style="stroke:#181818;stroke-width:1;"/><line style="stroke:#181818;stroke-width:1;" x1="28.4849" x2="282.0908" y1="67.4297" y2="67.4297"/><text fill="#000000" font-family="sans-serif" font-size="13" lengthAdjust="spacing" textLength="235.606" x="35.4849" y="62.3638">search([garantie_fin &lt;= today+30])</text></g><path d="M483.9282,82.4297 L560.5522,82.4297 L560.5522,89.5625 L550.5522,99.5625 L483.9282,99.5625 L483.9282,82.4297" fill="#EEEEEE" style="stroke:#000000;stroke-width:1.5;"/><rect fill="none" height="46.2656" style="stroke:#000000;stroke-width:1.5;" width="379.3027" x="483.9282" y="82.4297"/><text fill="#000000" font-family="sans-serif" font-size="13" font-weight="bold" lengthAdjust="spacing" textLength="31.624" x="498.9282" y="95.4966">loop</text><text fill="#000000" font-family="sans-serif" font-size="11" font-weight="bold" lengthAdjust="spacing" textLength="90.8843" x="575.5522" y="94.6401">[&#233;quipements]</text><g class="message" data-participant-1="Mail" data-participant-2="Client"><polygon fill="#181818" points="532.1934,116.6953,522.1934,120.6953,532.1934,124.6953,528.1934,120.6953" style="stroke:#181818;stroke-width:1;"/><line style="stroke:#181818;stroke-width:1;" x1="526.1934" x2="831.0122" y1="120.6953" y2="120.6953"/><text fill="#000000" font-family="sans-serif" font-size="13" lengthAdjust="spacing" textLength="212.9194" x="538.1934" y="115.6294">Alerte "garantie bient&#244;t expir&#233;e"</text></g><g class="message" data-participant-1="Cron" data-participant-2="Contrat"><polygon fill="#181818" points="386.2271,152.8281,396.2271,156.8281,386.2271,160.8281,390.2271,156.8281" style="stroke:#181818;stroke-width:1;"/><line style="stroke:#181818;stroke-width:1;" x1="28.4849" x2="392.2271" y1="156.8281" y2="156.8281"/><text fill="#000000" font-family="sans-serif" font-size="13" lengthAdjust="spacing" textLength="303.418" x="35.4849" y="151.7622">search([date_fin &lt;= today+30, statut='actif'])</text></g><path d="M483.9282,171.8281 L560.5522,171.8281 L560.5522,178.9609 L550.5522,188.9609 L483.9282,188.9609 L483.9282,171.8281" fill="#EEEEEE" style="stroke:#000000;stroke-width:1.5;"/><rect fill="none" height="46.2656" style="stroke:#000000;stroke-width:1.5;" width="379.3027" x="483.9282" y="171.8281"/><text fill="#000000" font-family="sans-serif" font-size="13" font-weight="bold" lengthAdjust="spacing" textLength="31.624" x="498.9282" y="184.895">loop</text><text fill="#000000" font-family="sans-serif" font-size="11" font-weight="bold" lengthAdjust="spacing" textLength="61.875" x="575.5522" y="184.0386">[contrats]</text><g class="message" data-participant-1="Mail" data-participant-2="Client"><polygon fill="#181818" points="532.1934,206.0938,522.1934,210.0938,532.1934,214.0938,528.1934,210.0938" style="stroke:#181818;stroke-width:1;"/><line style="stroke:#181818;stroke-width:1;" x1="526.1934" x2="831.0122" y1="210.0938" y2="210.0938"/><text fill="#000000" font-family="sans-serif" font-size="13" lengthAdjust="spacing" textLength="286.8188" x="538.1934" y="205.0278">Alerte "contrat se termine, renouvellement"</text></g><!--SRC=[VP3DYi8m58NtUOfBDrNKGPYTw80Kbu8mxcIGQtiTByGafhV3-4ZkVOE-cAcjFqKmknnEplSHXruuPOT68F7MAFSKp0u5Ey0Sef2c7rHTQKz6ebOjiKOyIYkR8-lgvVTykMYNDOS1fIeO3BvgnWXo2eHTP_MBFhIOrbisC9w0s0oFlS_XJrTfQnsKfxj4hY2SAoZirBiZc6hoGX3TXc1JvULPWFuT-_94aIAJFGGQ-uT2XlA2xqCkA8LCOao5j_5D9wqVlrTfIW40GdxFXlhWoTZYZxHk_ZCeNG00]--></g></svg>