<svg xmlns="http://www.w3.org/2000/svg" xmlns:xlink="http://www.w3.org/1999/xlink" contentStyleType="text/css" data-diagram-type="SEQUENCE" height="446px" preserveAspectRatio="none" style="width:876px;height:446px;background:#FFFFFF;" version="1.1" viewBox="0 0 876 446" width="876px" zoomAndPan="magnify"><defs/><g><rect fill="none" height="104.5313" style="stroke:#000000;stroke-width:1.5;" width="737.0615" x="133.7969" y="214.8281"/><g><title>Admin</title><rect fill="#000000" fill-opacity="0.00000" height="284.1953" width="8" x="26.4321" y="81.2969"/><line style="stroke:#181818;stroke-width:0.5;stroke-dasharray:5.0,5.0;" x1="30" x2="30" y1="81.2969" y2="365.4922"/></g><g><title>parc.client</title><rect fill="#000000" fill-opacity="0.00000" height="284.1953" width="8" x="183.7075" y="81.2969"/><line style="stroke:#181818;stroke-width:0.5;stroke-dasharray:5.0,5.0;" x1="186.7969" x2="186.7969" y1="81.2969" y2="365.4922"/></g><g><title>res.partner</title><rect fill="#000000" fill-opacity="0.00000" height="284.1953" width="8" x="384.896" y="81.2969"/><line style="stroke:#181818;stroke-width:0.5;stroke-dasharray:5.0,5.0;" x1="388.8628" x2="388.8628" y1="81.2969" y2="365.4922"/></g><g><title>res.users (sudo)</title><rect fill="#000000" fill-opacity="0.00000" height="284.1953" width="8" x="504.3975" y="81.2969"/><line style="stroke:#181818;stroke-width:0.5;stroke-dasharray:5.0,5.0;" x1="507.9292" x2="507.9292" y1="81.2969" y2="365.4922"/></g><g><title>SMTP</title><rect fill="#000000" fill-opacity="0.00000" height="284.1953" width="8" x="686.7144" y="81.2969"/><line style="stroke:#181818;stroke-width:0.5;stroke-dasharray:5.0,5.0;" x1="689.7344" x2="689.7344" y1="81.2969" y2="365.4922"/></g><g><title>Client</title><rect fill="#000000" fill-opacity="0.00000" height="284.1953" width="8" x="829.5933" y="81.2969"/><line style="stroke:#181818;stroke-width:0.5;stroke-dasharray:5.0,5.0;" x1="833.3281" x2="833.3281" y1="81.2969" y2="365.4922"/></g><g class="participant participant-head" data-participant="Admin"><text fill="#000000" font-family="sans-serif" font-size="14" lengthAdjust="spacing" textLength="44.8643" x="5" y="77.9951">Admin</text><ellipse cx="30.4321" cy="13.5" fill="#E2E2F0" rx="8" ry="8" style="stroke:#181818;stroke-width:0.5;"/><path d="M30.4321,21.5 L30.4321,48.5 M17.4321,29.5 L43.4321,29.5 M30.4321,48.5 L17.4321,63.5 M30.4321,48.5 L43.4321,63.5" fill="none" style="stroke:#181818;stroke-width:0.5;"/></g><g class="participant participant-tail" data-participant="Admin"><text fill="#000000" font-family="sans-serif" font-size="14" lengthAdjust="spacing" textLength="44.8643" x="5" y="377.4873">Admin</text><ellipse cx="30.4321" cy="389.2891" fill="#E2E2F0" rx="8" ry="8" style="stroke:#181818;stroke-width:0.5;"/><path d="M30.4321,397.2891 L30.4321,424.2891 M17.4321,405.2891 L43.4321,405.2891 M30.4321,424.2891 L17.4321,439.2891 M30.4321,424.2891 L43.4321,439.2891" fill="none" style="stroke:#181818;stroke-width:0.5;"/></g><g class="participant participant-head" data-participant="ParcClient"><rect fill="#E2E2F0" height="46.5938" rx="2.5" ry="2.5" style="stroke:#181818;stroke-width:0.5;" width="87.8213" x="143.7969" y="33.7031"/><text fill="#000000" font-family="sans-serif" font-size="14" lengthAdjust="spacing" textLength="73.8213" x="150.7969" y="53.6982">parc.client</text><text fill="#000000" font-family="sans-serif" font-size="14" lengthAdjust="spacing" textLength="54.5166" x="160.4492" y="69.9951">(model)</text></g><g class="participant participant-tail" data-participant="ParcClient"><rect fill="#E2E2F0" height="46.5938" rx="2.5" ry="2.5" style="stroke:#181818;stroke-width:0.5;" width="87.8213" x="143.7969" y="364.4922"/><text fill="#000000" font-family="sans-serif" font-size="14" lengthAdjust="spacing" textLength="73.8213" x="150.7969" y="384.4873">parc.client</text><text fill="#000000" font-family="sans-serif" font-size="14" lengthAdjust="spacing" textLength="54.5166" x="160.4492" y="400.7842">(model)</text></g><g class="participant participant-head" data-participant="Partner"><rect fill="#E2E2F0" height="30.2969" rx="2.5" ry="2.5" style="stroke:#181818;stroke-width:0.5;" width="92.0664" x="342.8628" y="50"/><text fill="#000000" font-family="sans-serif" font-size="14" lengthAdjust="spacing" textLength="78.0664" x="349.8628" y="69.9951">res.partner</text></g><g class="participant participant-tail" data-participant="Partner"><rect fill="#E2E2F0" height="30.2969" rx="2.5" ry="2.5" style="stroke:#181818;stroke-width:0.5;" width="92.0664" x="342.8628" y="364.4922"/><text fill="#000000" font-family="sans-serif" font-size="14" lengthAdjust="spacing" textLength="78.0664" x="349.8628" y="384.4873">res.partner</text></g><g class="participant participant-head" data-participant="User"><rect fill="#E2E2F0" height="30.2969" rx="2.5" ry="2.5" style="stroke:#181818;stroke-width:0.5;" width="126.9365" x="444.9292" y="50"/><text fill="#000000" font-family="sans-serif" font-size="14" lengthAdjust="spacing" textLength="112.9365" x="451.9292" y="69.9951">res.users (sudo)</text></g><g class="participant participant-tail" data-participant="User"><rect fill="#E2E2F0" height="30.2969" rx="2.5" ry="2.5" style="stroke:#181818;stroke-width:0.5;" width="126.9365" x="444.9292" y="364.4922"/><text fill="#000000" font-family="sans-serif" font-size="14" lengthAdjust="spacing" textLength="112.9365" x="451.9292" y="384.4873">res.users (sudo)</text></g><g class="participant participant-head" data-participant="Mail"><rect fill="#E2E2F0" height="30.2969" rx="2.5" ry="2.5" style="stroke:#181818;stroke-width:0.5;" width="51.96" x="664.7344" y="50"/><text fill="#000000" font-family="sans-serif" font-size="14" lengthAdjust="spacing" textLength="37.96" x="671.7344" y="69.9951">SMTP</text></g><g class="participant participant-tail" data-participant="Mail"><rect fill="#E2E2F0" height="30.2969" rx="2.5" ry="2.5" style="stroke:#181818;stroke-width:0.5;" width="51.96" x="664.7344" y="364.4922"/><text fill="#000000" font-family="sans-serif" font-size="14" lengthAdjust="spacing" textLength="37.96" x="671.7344" y="384.4873">SMTP</text></g><g class="participant participant-head" data-participant="Client"><rect fill="#E2E2F0" height="30.2969" rx="2.5" ry="2.5" style="stroke:#181818;stroke-width:0.5;" width="54.5303" x="806.3281" y="50"/><text fill="#000000" font-family="sans-serif" font-size="14" lengthAdjust="spacing" textLength="40.5303" x="813.3281" y="69.9951">Client</text></g><g class="participant participant-tail" data-participant="Client"><rect fill="#E2E2F0" height="30.2969" rx="2.5" ry="2.5" style="stroke:#181818;stroke-width:0.5;" width="54.5303" x="806.3281" y="364.4922"/><text fill="#000000" font-family="sans-serif" font-size="14" lengthAdjust="spacing" textLength="40.5303" x="813.3281" y="384.4873">Client</text></g><g class="message" data-participant-1="Admin" data-participant-2="ParcClient"><polygon fill="#181818" points="175.7075,108.4297,185.7075,112.4297,175.7075,116.4297,179.7075,112.4297" style="stroke:#181818;stroke-width:1;"/><line style="stroke:#181818;stroke-width:1;" x1="30.4321" x2="181.7075" y1="112.4297" y2="112.4297"/><text fill="#000000" font-family="sans-serif" font-size="13" lengthAdjust="spacing" textLength="77.7397" x="37.4321" y="107.3638">create(vals)</text></g><g class="message" data-participant-1="ParcClient" data-participant-2="Partner"><polygon fill="#181818" points="376.896,137.5625,386.896,141.5625,376.896,145.5625,380.896,141.5625" style="stroke:#181818;stroke-width:1;"/><line style="stroke:#181818;stroke-width:1;" x1="187.7075" x2="382.896" y1="141.5625" y2="141.5625"/><text fill="#000000" font-family="sans-serif" font-size="13" lengthAdjust="spacing" textLength="177.1885" x="194.7075" y="136.4966">create() [si partner absent]</text></g><g class="message" data-participant-1="Partner" data-participant-2="ParcClient"><polygon fill="#181818" points="198.7075,166.6953,188.7075,170.6953,198.7075,174.6953,194.7075,170.6953" style="stroke:#181818;stroke-width:1;"/><line style="stroke:#181818;stroke-width:1;stroke-dasharray:2.0,2.0;" x1="192.7075" x2="387.896" y1="170.6953" y2="170.6953"/><text fill="#000000" font-family="sans-serif" font-size="13" lengthAdjust="spacing" textLength="97.6079" x="204.7075" y="165.6294">new partner_id</text></g><g class="message" data-participant-1="ParcClient" data-participant-2="User"><polygon fill="#181818" points="496.3975,195.8281,506.3975,199.8281,496.3975,203.8281,500.3975,199.8281" style="stroke:#181818;stroke-width:1;"/><line style="stroke:#181818;stroke-width:1;" x1="187.7075" x2="502.3975" y1="199.8281" y2="199.8281"/><text fill="#000000" font-family="sans-serif" font-size="13" lengthAdjust="spacing" textLength="85.2808" x="194.7075" y="194.7622">search(login)</text></g><path d="M133.7969,214.8281 L198.2397,214.8281 L198.2397,221.9609 L188.2397,231.9609 L133.7969,231.9609 L133.7969,214.8281" fill="#EEEEEE" style="stroke:#000000;stroke-width:1.5;"/><rect fill="none" height="104.5313" style="stroke:#000000;stroke-width:1.5;" width="737.0615" x="133.7969" y="214.8281"/><text fill="#000000" font-family="sans-serif" font-size="13" font-weight="bold" lengthAdjust="spacing" textLength="19.4429" x="148.7969" y="227.895">alt</text><text fill="#000000" font-family="sans-serif" font-size="11" font-weight="bold" lengthAdjust="spacing" textLength="72.3003" x="213.2397" y="227.0386">[inexistant]</text><g class="message" data-participant-1="ParcClient" data-participant-2="User"><polygon fill="#181818" points="496.3975,249.0938,506.3975,253.0938,496.3975,257.0938,500.3975,253.0938" style="stroke:#181818;stroke-width:1;"/><line style="stroke:#181818;stroke-width:1;" x1="187.7075" x2="502.3975" y1="253.0938" y2="253.0938"/><text fill="#000000" font-family="sans-serif" font-size="13" lengthAdjust="spacing" textLength="221.2031" x="194.7075" y="248.0278">create(name, login, groups_id, &#8230;)</text></g><g class="message" data-participant-1="User" data-participant-2="Mail"><polygon fill="#181818" points="678.7144,278.2266,688.7144,282.2266,678.7144,286.2266,682.7144,282.2266" style="stroke:#181818;stroke-width:1;"/><line style="stroke:#181818;stroke-width:1;stroke-dasharray:2.0,2.0;" x1="508.3975" x2="684.7144" y1="282.2266" y2="282.2266"/><text fill="#000000" font-family="sans-serif" font-size="13" lengthAdjust="spacing" textLength="158.3169" x="515.3975" y="277.1606">action_reset_password()</text></g><g class="message" data-participant-1="Mail" data-participant-2="Client"><polygon fill="#181818" points="821.5933,307.3594,831.5933,311.3594,821.5933,315.3594,825.5933,311.3594" style="stroke:#181818;stroke-width:1;"/><line style="stroke:#181818;stroke-width:1;" x1="690.7144" x2="827.5933" y1="311.3594" y2="311.3594"/><text fill="#000000" font-family="sans-serif" font-size="13" lengthAdjust="spacing" textLength="118.8789" x="697.7144" y="306.2935">Email lien &amp; token</text></g><g class="message" data-participant-1="ParcClient" data-participant-2="Admin"><polygon fill="#181818" points="41.4321,343.4922,31.4321,347.4922,41.4321,351.4922,37.4321,347.4922" style="stroke:#181818;stroke-width:1;"/><line style="stroke:#181818;stroke-width:1;stroke-dasharray:2.0,2.0;" x1="35.4321" x2="186.7075" y1="347.4922" y2="347.4922"/><text fill="#000000" font-family="sans-serif" font-size="13" lengthAdjust="spacing" textLength="133.2754" x="47.4321" y="342.4263">enregistrement cr&#233;&#233;</text></g><!--SRC=[RP31JiCm38RlUGfh1zHAsnwW1oI4E4wQ19m0LI6rIhJKgUAKSUHfaFOSUnEUX3XhWHLoYdz_jdzRc-W3N3MT9TNh4AsnlQO8YnIOjN4MAJvIqVa6NRa0pR1DYUkidnS4vBK8X67YvFyN6XW3Gy53uqyTxtc6tMxkjfBOQEkKokPWTVbhSWKce8vOl6h7fVf9Z9WC_cPAU60BepNGpvou9pLIi9er9jnFR6sRMMjnMW5Z4byAvrjBfT8kWYLyinoJTmNf_LSqcY7TuH9owHBQu8UUqvWbVBv_bBbMw6nAbgz0csWzrUbk6EjUC-zzQ8eJAeGCcApVT29801SG_Gv98PslaEXypWgG0hR9Sy1ECYOS3yV35m00]--></g></svg>