<svg xmlns="http://www.w3.org/2000/svg" xmlns:xlink="http://www.w3.org/1999/xlink" contentStyleType="text/css" data-diagram-type="SEQUENCE" height="457px" preserveAspectRatio="none" style="width:843px;height:457px;background:#FFFFFF;" version="1.1" viewBox="0 0 843 457" width="843px" zoomAndPan="magnify"><defs/><g><g><title>Client</title><rect fill="#000000" fill-opacity="0.00000" height="295.1953" width="8" x="24.2651" y="81.2969"/><line style="stroke:#181818;stroke-width:0.5;stroke-dasharray:5.0,5.0;" x1="28" x2="28" y1="81.2969" y2="376.4922"/></g><g><title>/my/tickets/new</title><rect fill="#000000" fill-opacity="0.00000" height="295.1953" width="8" x="354.0317" y="81.2969"/><line style="stroke:#181818;stroke-width:0.5;stroke-dasharray:5.0,5.0;" x1="357.2368" x2="357.2368" y1="81.2969" y2="376.4922"/></g><g><title>parc.intervention</title><rect fill="#000000" fill-opacity="0.00000" height="295.1953" width="8" x="494.1162" y="81.2969"/><line style="stroke:#181818;stroke-width:0.5;stroke-dasharray:5.0,5.0;" x1="497.8267" x2="497.8267" y1="81.2969" y2="376.4922"/></g><g><title>Technicien</title><rect fill="#000000" fill-opacity="0.00000" height="295.1953" width="8" x="720.2319" y="81.2969"/><line style="stroke:#181818;stroke-width:0.5;stroke-dasharray:5.0,5.0;" x1="723.4463" x2="723.4463" y1="81.2969" y2="376.4922"/></g><g><title>Admin</title><rect fill="#000000" fill-opacity="0.00000" height="295.1953" width="8" x="804.4497" y="81.2969"/><line style="stroke:#181818;stroke-width:0.5;stroke-dasharray:5.0,5.0;" x1="808.0176" x2="808.0176" y1="81.2969" y2="376.4922"/></g><g class="participant participant-head" data-participant="Client"><text fill="#000000" font-family="sans-serif" font-size="14" lengthAdjust="spacing" textLength="40.5303" x="5" y="77.9951">Client</text><ellipse cx="28.2651" cy="13.5" fill="#E2E2F0" rx="8" ry="8" style="stroke:#181818;stroke-width:0.5;"/><path d="M28.2651,21.5 L28.2651,48.5 M15.2651,29.5 L41.2651,29.5 M28.2651,48.5 L15.2651,63.5 M28.2651,48.5 L41.2651,63.5" fill="none" style="stroke:#181818;stroke-width:0.5;"/></g><g class="participant participant-tail" data-participant="Client"><text fill="#000000" font-family="sans-serif" font-size="14" lengthAdjust="spacing" textLength="40.5303" x="5" y="388.4873">Client</text><ellipse cx="28.2651" cy="400.2891" fill="#E2E2F0" rx="8" ry="8" style="stroke:#181818;stroke-width:0.5;"/><path d="M28.2651,408.2891 L28.2651,435.2891 M15.2651,416.2891 L41.2651,416.2891 M28.2651,435.2891 L15.2651,450.2891 M28.2651,435.2891 L41.2651,450.2891" fill="none" style="stroke:#181818;stroke-width:0.5;"/></g><g class="participant participant-head" data-participant="Portal"><rect fill="#E2E2F0" height="30.2969" rx="2.5" ry="2.5" style="stroke:#181818;stroke-width:0.5;" width="125.5898" x="295.2368" y="50"/><text fill="#000000" font-family="sans-serif" font-size="14" lengthAdjust="spacing" textLength="111.5898" x="302.2368" y="69.9951">/my/tickets/new</text></g><g class="participant participant-tail" data-participant="Portal"><rect fill="#E2E2F0" height="30.2969" rx="2.5" ry="2.5" style="stroke:#181818;stroke-width:0.5;" width="125.5898" x="295.2368" y="375.4922"/><text fill="#000000" font-family="sans-serif" font-size="14" lengthAdjust="spacing" textLength="111.5898" x="302.2368" y="395.4873">/my/tickets/new</text></g><g class="participant participant-head" data-participant="Ticket"><rect fill="#E2E2F0" height="30.2969" rx="2.5" ry="2.5" style="stroke:#181818;stroke-width:0.5;" width="134.5791" x="430.8267" y="50"/><text fill="#000000" font-family="sans-serif" font-size="14" lengthAdjust="spacing" textLength="120.5791" x="437.8267" y="69.9951">parc.intervention</text></g><g class="participant participant-tail" data-participant="Ticket"><rect fill="#E2E2F0" height="30.2969" rx="2.5" ry="2.5" style="stroke:#181818;stroke-width:0.5;" width="134.5791" x="430.8267" y="375.4922"/><text fill="#000000" font-family="sans-serif" font-size="14" lengthAdjust="spacing" textLength="120.5791" x="437.8267" y="395.4873">parc.intervention</text></g><g class="participant participant-head" data-participant="Technicien"><rect fill="#E2E2F0" height="30.2969" rx="2.5" ry="2.5" style="stroke:#181818;stroke-width:0.5;" width="89.5713" x="679.4463" y="50"/><text fill="#000000" font-family="sans-serif" font-size="14" lengthAdjust="spacing" textLength="75.5713" x="686.4463" y="69.9951">Technicien</text></g><g class="participant participant-tail" data-participant="Technicien"><rect fill="#E2E2F0" height="30.2969" rx="2.5" ry="2.5" style="stroke:#181818;stroke-width:0.5;" width="89.5713" x="679.4463" y="375.4922"/><text fill="#000000" font-family="sans-serif" font-size="14" lengthAdjust="spacing" textLength="75.5713" x="686.4463" y="395.4873">Technicien</text></g><g class="participant participant-head" data-participant="Admin"><rect fill="#E2E2F0" height="30.2969" rx="2.5" ry="2.5" style="stroke:#181818;stroke-width:0.5;" width="58.8643" x="779.0176" y="50"/><text fill="#000000" font-family="sans-serif" font-size="14" lengthAdjust="spacing" textLength="44.8643" x="786.0176" y="69.9951">Admin</text></g><g class="participant participant-tail" data-participant="Admin"><rect fill="#E2E2F0" height="30.2969" rx="2.5" ry="2.5" style="stroke:#181818;stroke-width:0.5;" width="58.8643" x="779.0176" y="375.4922"/><text fill="#000000" font-family="sans-serif" font-size="14" lengthAdjust="spacing" textLength="44.8643" x="786.0176" y="395.4873">Admin</text></g><g class="message" data-participant-1="Client" data-participant-2="Portal"><polygon fill="#181818" points="346.0317,108.4297,356.0317,112.4297,346.0317,116.4297,350.0317,112.4297" style="stroke:#181818;stroke-width:1;"/><line style="stroke:#181818;stroke-width:1;" x1="28.2651" x2="352.0317" y1="112.4297" y2="112.4297"/><text fill="#000000" font-family="sans-serif" font-size="13" lengthAdjust="spacing" textLength="305.7666" x="35.2651" y="107.3638">POST formulaire (id &#233;quipement + description)</text></g><g class="message" data-participant-1="Portal" data-participant-2="Ticket"><polygon fill="#181818" points="486.1162,137.5625,496.1162,141.5625,486.1162,145.5625,490.1162,141.5625" style="stroke:#181818;stroke-width:1;"/><line style="stroke:#181818;stroke-width:1;" x1="358.0317" x2="492.1162" y1="141.5625" y2="141.5625"/><text fill="#000000" font-family="sans-serif" font-size="13" lengthAdjust="spacing" textLength="80.6343" x="365.0317" y="136.4966">create({...})</text></g><g class="message" data-participant-1="Ticket" data-participant-2="Client"><polygon fill="#181818" points="39.2651,166.6953,29.2651,170.6953,39.2651,174.6953,35.2651,170.6953" style="stroke:#181818;stroke-width:1;"/><line style="stroke:#181818;stroke-width:1;stroke-dasharray:2.0,2.0;" x1="33.2651" x2="497.1162" y1="170.6953" y2="170.6953"/><text fill="#000000" font-family="sans-serif" font-size="13" lengthAdjust="spacing" textLength="235.8535" x="45.2651" y="165.6294">Accus&#233; de r&#233;ception (template Mail)</text></g><g class="message" data-participant-1="Admin" data-participant-2="Ticket"><polygon fill="#181818" points="509.1162,195.8281,499.1162,199.8281,509.1162,203.8281,505.1162,199.8281" style="stroke:#181818;stroke-width:1;"/><line style="stroke:#181818;stroke-width:1;" x1="503.1162" x2="807.4497" y1="199.8281" y2="199.8281"/><text fill="#000000" font-family="sans-serif" font-size="13" lengthAdjust="spacing" textLength="121.0752" x="515.1162" y="194.7622">assigne technicien</text></g><g class="message" data-participant-1="Technicien" data-participant-2="Ticket"><polygon fill="#181818" points="509.1162,224.9609,499.1162,228.9609,509.1162,232.9609,505.1162,228.9609" style="stroke:#181818;stroke-width:1;"/><line style="stroke:#181818;stroke-width:1;" x1="503.1162" x2="723.2319" y1="228.9609" y2="228.9609"/><text fill="#000000" font-family="sans-serif" font-size="13" lengthAdjust="spacing" textLength="158.3423" x="515.1162" y="223.895">update(etat='en_cours')</text></g><g class="message" data-participant-1="Technicien" data-participant-2="Ticket"><polygon fill="#181818" points="509.1162,254.0938,499.1162,258.0938,509.1162,262.0938,505.1162,258.0938" style="stroke:#181818;stroke-width:1;"/><line style="stroke:#181818;stroke-width:1;" x1="503.1162" x2="723.2319" y1="258.0938" y2="258.0938"/><text fill="#000000" font-family="sans-serif" font-size="13" lengthAdjust="spacing" textLength="202.1157" x="515.1162" y="253.0278">write(diagnostic, etat='resolu')</text></g><g class="message" data-participant-1="Ticket" data-participant-2="Client"><polygon fill="#181818" points="39.2651,283.2266,29.2651,287.2266,39.2651,291.2266,35.2651,287.2266" style="stroke:#181818;stroke-width:1;"/><line style="stroke:#181818;stroke-width:1;stroke-dasharray:2.0,2.0;" x1="33.2651" x2="497.1162" y1="287.2266" y2="287.2266"/><text fill="#000000" font-family="sans-serif" font-size="13" lengthAdjust="spacing" textLength="169.9521" x="45.2651" y="282.1606">Mail r&#233;solution + sondage</text></g><g class="message" data-participant-1="Client" data-participant-2="Ticket"><polygon fill="#181818" points="486.1162,312.3594,496.1162,316.3594,486.1162,320.3594,490.1162,316.3594" style="stroke:#181818;stroke-width:1;"/><line style="stroke:#181818;stroke-width:1;" x1="28.2651" x2="492.1162" y1="316.3594" y2="316.3594"/><text fill="#000000" font-family="sans-serif" font-size="13" lengthAdjust="spacing" textLength="184.6978" x="35.2651" y="311.2935">accepte / refuse (via portail)</text></g><g class="message" data-participant-1="Ticket" data-participant-2="Ticket"><line style="stroke:#181818;stroke-width:1;" x1="498.1162" x2="540.1162" y1="345.4922" y2="345.4922"/><line style="stroke:#181818;stroke-width:1;" x1="540.1162" x2="540.1162" y1="345.4922" y2="358.4922"/><line style="stroke:#181818;stroke-width:1;" x1="499.1162" x2="540.1162" y1="358.4922" y2="358.4922"/><polygon fill="#181818" points="509.1162,354.4922,499.1162,358.4922,509.1162,362.4922,505.1162,358.4922" style="stroke:#181818;stroke-width:1;"/><text fill="#000000" font-family="sans-serif" font-size="13" lengthAdjust="spacing" textLength="106.7803" x="505.1162" y="340.4263">set etat='ferme'</text></g><!--SRC=[TP3DQiCm3CVlUGgHInAw9lV21gNdiS9w7y9HEx74zcIxPOmzK9uZBpQxwPOMjgF4J_yFeV96ODCnQPzP5C-ABMeFMoCUEq07UTD_D77_Hjurcaxv3PV7GTMiFSanQh3HUJhQdVaRSaVgLSU1T3RvmVBXOhE2xTFp3lP6-j0X2q79BOp3Us1BVK8Nq99JmZOvLDabNHIOZ5QWXD1J-LdNzLULJLjOHc3oMi5QgU368Ug0Z8EYinAKddhRnKjuHEwgRDtshAzrqJa-Q08_fv-BN8F1jYa0UVJt1UaNPOAuelg7FWb7k6KyQEFYY-vWEXHofWl5dmrImfGz4UVm2t16jtYWguV-vbQf8a43GllWuaUFZ63JtrBF7_dvmCLnoh0dwQdu1W00]--></g></svg>